<svg width="2500" height="324" viewBox="0 0 2500 324" fill="none" xmlns="http://www.w3.org/2000/svg">
<g clip-path="url(#clip0_3143:503)">
<path d="M241.445 4.62841C243.984 -0.959506 251.662 -1.27722 255.878 2.5529C264.498 9.40208 269.385 19.7956 273.073 29.9337C279.684 49.8426 280.882 72.8968 270.582 91.7999C265.521 102.465 257.89 111.709 248.995 119.388C201.596 160.801 146.018 191.664 89.087 217.911C86.1956 219.54 82.9083 219.971 79.6338 219.715C81.9488 214.878 86.5005 211.796 90.1231 208.043C120.457 177.327 147.599 143.622 172.856 108.642C197.221 75.0042 221.377 41.0616 241.445 4.62841Z" fill="#80BA27"/>
<path d="M551.99 34.6434C579.977 21.7273 611.637 18.5662 642.051 21.9349C662.95 24.0902 683.593 30.0917 701.762 40.7263C713.72 47.609 724.369 56.4842 734.363 65.9357C720.745 82.0289 706.839 97.9002 692.965 113.768C673.918 96.5096 650.544 81.981 624.185 80.8475C598.609 78.756 572.331 89.405 555.823 109.122C522.391 147.679 526.622 213.425 566.472 245.98C587.387 263.622 616.987 267.677 642.994 261.13C663.143 256.26 679.986 243.36 695.043 229.679C708.71 243.631 722.584 257.394 736.378 271.236C723.542 285.844 708.167 298.441 690.94 307.557C668.573 319.308 643.028 324.097 617.914 323.842C585.792 324.704 553.334 315.094 527.198 296.317C496.257 274.413 474.912 239.879 468.254 202.648C462.666 171.116 465.731 137.716 478.92 108.372C493.157 75.962 519.644 49.0922 551.99 34.6434ZM2161.76 23.2281C2171.75 23.276 2181.73 23.2281 2191.74 23.2616C2191.75 121.304 2191.69 219.364 2191.77 317.425C2181.76 317.472 2171.75 317.425 2161.74 317.457C2161.69 306.665 2161.87 295.872 2161.64 285.095C2153.85 293.349 2146.08 301.841 2136.2 307.654C2112.42 322.996 2081.69 326.095 2055.04 317.058C2030.79 309.235 2009.88 291.801 1997.77 269.385C1986.07 248.728 1982.42 224.3 1984.62 200.861C1987.03 169.555 2003.81 139.442 2029.75 121.595C2054.34 104.334 2086.9 99.0178 2115.57 108.184C2133.75 113.771 2149.54 125.49 2161.72 139.939C2161.79 101.028 2161.72 62.12 2161.76 23.2281ZM2071.47 135.002C2057.2 137.924 2043.9 145.541 2034.32 156.524C2016.65 176.846 2012.83 205.697 2017.23 231.482C2020.72 250.305 2030.87 268.33 2046.71 279.41C2061.76 290.348 2081.37 294.801 2099.7 291.448C2119.41 287.983 2137.31 276.057 2148.58 259.597C2169.24 230.222 2167.32 186.988 2143.78 159.766C2126.42 139.345 2097.8 128.888 2071.47 135.002ZM1449.35 44.5101C1476.3 30.5563 1507.76 27.7144 1537.49 31.8654C1558.82 34.7392 1579.23 43.0891 1596.9 55.2868C1607.12 62.2796 1616.47 70.454 1625.53 78.8997C1618.15 86.6749 1610.76 94.4501 1603.14 101.986C1594.73 93.7316 1585.85 85.9085 1576.19 79.1551C1552.16 62.7267 1521.67 56.4682 1493.04 61.21C1466.83 65.5047 1442.59 80.4643 1426.83 101.842C1412.93 120.202 1405.43 142.953 1403.97 165.816C1401.66 195.176 1409.11 225.718 1426.82 249.507C1443.5 272.321 1469.65 288.047 1497.74 291.654C1518.33 294.033 1539.89 291.815 1558.84 283.08C1576.42 274.525 1591.87 262.07 1605.11 247.765C1612.56 254.695 1619.67 262.024 1627.12 268.967C1610.93 285.365 1592.83 300.515 1571.56 309.823C1547.25 320.775 1519.91 323.954 1493.55 321.062C1461.29 317.518 1430.55 301.84 1408.57 278.003C1370.8 237.132 1360.87 174.515 1380.09 122.851C1392.33 89.373 1417.13 60.2041 1449.35 44.5101ZM2234.73 30.8436C2246.34 30.7159 2257.95 30.7622 2269.57 30.8101C2269.63 43.2312 2269.6 55.654 2269.59 68.0735C2257.95 68.0575 2246.31 68.2012 2234.67 67.9937C2234.72 55.6061 2234.62 43.2169 2234.73 30.8436ZM2328.91 45.1647C2339.07 45.1311 2349.22 45.1168 2359.38 45.1806C2359.38 66.2391 2359.38 87.2816 2359.39 108.342C2382.53 108.374 2405.66 108.342 2428.81 108.358C2428.81 117.921 2428.78 127.468 2428.84 137.032C2405.69 137.048 2382.54 137.032 2359.39 137.032C2359.38 178.526 2359.38 220.018 2359.39 261.498C2359.69 269.847 2361.66 279.348 2368.89 284.487C2378.58 291.4 2391.26 292.423 2402.72 290.602C2411.65 289.358 2419.76 285.175 2428.01 281.805C2428.04 291.881 2428.07 301.953 2427.98 312.027C2416.16 317.615 2403.26 321.383 2390.08 320.682C2371.4 321.383 2351.17 314.711 2340.07 298.904C2331.74 287.776 2328.98 273.662 2328.91 260.028C2328.87 219.061 2328.85 178.093 2328.91 137.11C2319.49 136.95 2310.06 137.062 2300.64 137.046V108.342C2310.04 108.342 2319.48 108.404 2328.9 108.294C2328.87 87.2496 2328.85 66.2071 2328.91 45.1647ZM1072.16 99.2078C1084.09 91.7359 1098.46 89.6764 1112.28 89.8839C1112.71 112.283 1112.41 134.685 1112.44 157.083C1093.68 156.573 1073.49 161.329 1060.28 175.523C1045.47 191.186 1041.56 213.602 1040.97 234.387C1040.87 262.598 1040.93 290.827 1040.93 319.052C1019.65 319.036 998.368 319.036 977.104 319.052C977.136 244.11 977.086 169.184 977.136 94.2585C998.387 94.2904 1019.65 94.2904 1040.9 94.2585C1041.03 108.659 1040.71 123.076 1041.09 137.477C1048.31 122.613 1057.57 107.813 1072.16 99.2078ZM1163.05 110.751C1182 96.7331 1205.76 89.5966 1229.28 90.2511C1254.48 90.026 1280.33 98.0088 1299.22 115.093C1319.85 133.326 1331.34 159.956 1335.32 186.81C1337.28 200.78 1338.13 215.037 1336.1 229.055C1284.21 228.863 1232.32 229.055 1180.44 228.959C1183.38 242.865 1190.94 256.274 1203.14 264.003C1216.52 272.673 1233.36 273.599 1248.74 271.347C1264.3 268.953 1277.86 259.932 1289.18 249.379C1301.62 260.074 1313.81 271.076 1326.12 281.933C1310.03 302.288 1286.66 316.737 1261.1 321.463C1231.72 326.941 1200.05 323.842 1173.62 309.265C1151.27 297.116 1133.52 276.776 1124.64 252.923C1115.91 229.805 1114.52 204.165 1119.47 180.025C1125.07 152.74 1140.41 127.227 1163.05 110.751ZM1197.33 153.155C1187.26 162.415 1182.15 175.682 1179.47 188.839C1211.22 188.871 1242.96 188.806 1274.71 188.871C1272.59 171.629 1263.91 153.652 1247.53 145.972C1231.37 138.291 1210.55 140.862 1197.33 153.155ZM764.506 110C797.714 94.1323 835.457 89.3906 871.874 92.9014C893.156 95.2324 914.917 102.88 929.653 119.037C940.364 130.58 946.688 145.605 949.562 160.946C952.787 176.704 951.909 192.877 952.02 208.876C952.004 245.597 952.02 282.317 952.004 319.038C931.296 318.99 910.59 319.166 889.883 318.94C889.979 311.405 890.043 303.855 889.849 296.317C884.836 299.958 880.733 304.717 875.496 308.054C854.39 322.646 827.091 325.935 802.28 321.241C781.557 317.314 761.471 304.94 752.181 285.478C745.058 271.748 744.677 255.768 746.21 240.695C748.461 223.453 758.136 207.329 772.664 197.686C790.927 185.536 813.423 181.816 834.992 181.784C853.817 181.465 872.672 184.481 890.41 190.789C891.174 177.953 887.504 163.727 876.6 155.888C863.331 146.406 845.962 145.766 830.284 147.205C813.153 148.177 796.565 153.031 780.551 158.954C775.155 142.65 769.854 126.317 764.506 110ZM837.47 221.376C828.769 222.86 819.826 226.037 813.873 232.839C804.404 243.599 804.916 262.854 816.954 271.555C827.539 279.41 841.653 279.697 854.171 277.686C868.379 275.355 882.797 267.342 888.545 253.53C892.169 245.645 891.099 236.814 891.13 228.418C874.285 221.391 855.543 218.629 837.47 221.376ZM1817.59 118.781C1851.13 96.4138 1899.78 98.9364 1929.86 126.221C1951.97 145.683 1963.16 175.108 1964.77 204.071C1965.19 211.445 1965.47 218.965 1963.67 226.197C1909.5 226.133 1855.35 226.165 1801.18 226.165C1803.67 248.419 1816.14 269.653 1835.06 281.819C1849.9 291.367 1868.31 294.24 1885.62 291.718C1907.36 289.227 1926.04 275.337 1940.06 259.26C1947.64 265.359 1954.75 272.048 1962.09 278.452C1951.73 289.772 1940.27 300.243 1927 308.052C1910.97 318.268 1891.62 322.15 1872.82 321.974C1849.41 322.533 1825.94 314.31 1807.84 299.51C1786.24 282.174 1772.89 255.639 1769.97 228.241C1768.21 210.391 1769.27 192.031 1775.08 174.948C1782.42 152.181 1797.36 131.729 1817.59 118.781ZM1838.81 139.936C1817.49 151.385 1804.66 174.629 1801.22 198.036C1845.1 198.052 1888.99 198.002 1932.87 198.068C1931.09 184.752 1927 171.533 1919.67 160.197C1911.42 147.425 1898.44 137.558 1883.51 134.158C1868.55 131.011 1852.28 132.352 1838.81 139.936ZM1747.6 106.36C1755.07 105.051 1762.68 105.482 1770.24 105.45C1770.22 116.147 1770.32 126.86 1770.19 137.557C1750.79 136.533 1730.56 141.131 1715.23 153.505C1693.2 170.749 1682.98 199.295 1682.49 226.611C1682.39 256.881 1682.47 287.169 1682.46 317.44C1672.45 317.456 1662.44 317.44 1652.44 317.456C1652.46 247.75 1652.46 178.045 1652.44 108.342C1662.45 108.374 1672.46 108.342 1682.47 108.358C1682.5 121.274 1682.3 134.19 1682.57 147.106C1686.03 144.503 1688.17 140.609 1691.16 137.495C1705.61 120.985 1725.82 109.458 1747.6 106.36ZM2237.05 108.356C2247.06 108.34 2257.05 108.356 2267.08 108.34C2267.06 178.044 2267.06 247.749 2267.08 317.454C2257.07 317.438 2247.06 317.47 2237.06 317.422C2237.06 247.734 2237.1 178.045 2237.05 108.356ZM347.616 157.498C347.917 156.747 348.542 155.264 348.861 154.514C348.893 155.2 348.941 156.589 348.971 157.274L347.616 157.498ZM378.637 206.144C385.167 203.558 394.364 202.872 398.657 209.593C403.239 217.4 401.676 226.994 399.695 235.361C394.235 256.068 381.814 274.764 365.305 288.335C350.793 299.799 332.56 305.21 314.725 308.98C290.506 313.785 265.743 314.742 241.124 315.54C199.183 316.178 157.146 313.498 115.748 306.631C78.6279 300.199 41.4922 291.065 7.56562 274.285C5.09097 273.343 3.22301 271.475 1.62646 269.448C5.71362 266.111 11.1419 267.979 15.898 267.963C64.9279 269.767 114.149 267.787 162.814 261.481C196.308 257.186 229.262 249.586 262.007 241.524C301.396 231.498 340.559 220.386 378.637 206.144ZM264.947 217.783C265.697 217.464 267.198 216.841 267.948 216.538L267.71 217.927L266.177 218.564L264.947 217.783ZM255.351 220.913L258.353 219.635L258.129 220.992C257.443 220.976 256.054 220.929 255.351 220.913ZM244.207 224.233C244.942 223.898 246.412 223.243 247.147 222.924L246.955 224.281C246.267 224.281 244.894 224.249 244.207 224.233ZM232.936 227.267C233.686 226.979 235.203 226.389 235.953 226.103L235.682 227.474L234.149 228.065L232.936 227.267ZM226.629 228.895C227.364 228.624 228.865 228.081 229.599 227.808L229.328 229.151L226.629 228.895ZM220.275 230.699C221.01 230.412 222.462 229.821 223.179 229.534L222.956 230.893L220.275 230.699ZM70.7585 241.412L72.2274 240.678L73.5222 241.379C72.7878 241.731 71.3349 242.45 70.6005 242.801L70.7585 241.412Z" fill="#006A5C"/>
<path d="M2426.29 51.3854C2426.29 46.4689 2427.42 41.9054 2429.68 37.6947C2431.97 33.4841 2435.12 30.174 2439.14 27.7644C2443.18 25.3305 2447.53 24.1136 2452.21 24.1136C2456.88 24.1136 2461.22 25.3305 2465.24 27.7644C2469.26 30.174 2472.4 33.4841 2474.66 37.6947C2476.95 41.9054 2478.09 46.4689 2478.09 51.3854C2478.09 56.1801 2477 60.6707 2474.81 64.857C2472.61 69.0433 2469.5 72.4142 2465.46 74.9698C2461.44 77.5011 2457.03 78.7667 2452.21 78.7667C2447.41 78.7667 2442.99 77.5132 2438.95 75.0063C2434.94 72.4751 2431.82 69.1163 2429.61 64.93C2427.39 60.7437 2426.29 56.2288 2426.29 51.3854ZM2430.48 51.3854C2430.48 55.5717 2431.46 59.4537 2433.4 63.0316C2435.35 66.585 2437.99 69.3718 2441.33 71.392C2444.69 73.4121 2448.31 74.4222 2452.21 74.4222C2456.13 74.4222 2459.76 73.3999 2463.12 71.3555C2466.48 69.2867 2469.11 66.4877 2471.01 62.9585C2472.93 59.4294 2473.89 55.5717 2473.89 51.3854C2473.89 47.2234 2472.93 43.39 2471.01 39.8852C2469.11 36.3561 2466.48 33.5814 2463.12 31.5613C2459.76 29.5168 2456.13 28.4946 2452.21 28.4946C2448.31 28.4946 2444.69 29.5047 2441.33 31.5248C2437.97 33.5206 2435.32 36.2952 2433.37 39.8487C2431.45 43.4022 2430.48 47.2477 2430.48 51.3854ZM2446.84 54.1235V66.4633H2441.69V35.4677H2451.77C2455.49 35.4677 2458.38 36.2709 2460.42 37.8773C2462.49 39.4593 2463.52 41.7715 2463.52 44.8139C2463.52 47.8075 2461.97 50.0954 2458.85 51.6774C2461.82 52.8944 2463.32 55.377 2463.34 59.1252V61.3522C2463.34 63.4453 2463.55 64.9543 2463.96 65.8792V66.4633H2458.67C2458.33 65.5871 2458.16 64.0294 2458.16 61.7903C2458.16 59.5267 2458.12 58.1881 2458.05 57.7743C2457.66 55.4378 2456.06 54.2209 2453.27 54.1235H2446.84ZM2446.84 49.4504H2452.54C2454.29 49.4017 2455.7 48.9758 2456.77 48.1726C2457.84 47.3694 2458.38 46.3107 2458.38 44.9964C2458.38 43.2197 2457.9 41.9662 2456.95 41.236C2456 40.4815 2454.31 40.1043 2451.88 40.1043H2446.84V49.4504Z" fill="#006A5C"/>
<path d="M2460.33 42.8656C2458.44 39.5129 2463.66 39.5448 2461.78 42.8656H2460.33ZM326.078 92.8376C330.309 89.6285 336.073 87.9377 341.198 89.8536C348.416 93.6199 350.681 102.337 352.214 109.713C354.225 124.561 353.874 140.319 348.861 154.514C348.542 155.264 347.917 156.747 347.616 157.498C348.302 159.669 346.801 161.714 346.179 163.71C343.513 169.825 340.511 175.907 336.026 180.905C318.353 199.776 293.478 208.908 269.466 216.731L267.95 216.54C267.199 216.843 265.699 217.466 264.948 217.785C263.064 219.014 260.669 220.339 258.354 219.637L255.353 220.914C252.878 222.175 250.004 223.644 247.147 222.926C246.412 223.245 244.942 223.9 244.207 224.235C241.669 225.321 238.795 226.932 235.953 226.103C235.203 226.39 233.686 226.981 232.936 227.267L231.435 228.368L229.601 227.808C228.866 228.081 227.365 228.624 226.631 228.895L224.971 230.059L223.182 229.532C222.466 229.821 221.013 230.412 220.278 230.698C217.323 231.879 214.194 232.454 211.13 233.204C162.26 244.506 112.4 251.245 62.3799 254.582C56.5525 254.948 50.7091 255.317 44.8977 254.662L44.9616 250.974C53.551 248.515 61.8371 244.141 70.6037 242.8C71.3381 242.448 72.791 241.73 73.5254 241.377C77.0362 239.128 81.1888 238.152 85.0029 236.541C119.201 222.937 152.649 207.388 184.771 189.395C219.399 170.27 251.028 146.352 283.214 123.49C283.294 123.443 283.438 123.33 283.516 123.266C297.674 113.082 311.862 102.939 326.078 92.8376V92.8376Z" fill="#019E93"/>
</g>
<defs>
<clipPath id="clip0_3143:503">
<rect width="2500" height="324" fill="white"/>
</clipPath>
</defs>
</svg>
